<svg xmlns="http://www.w3.org/2000/svg" viewBox="0 0 412.24 245.38"><defs><style>.cls-1{fill:none;stroke:#000;stroke-miterlimit:10;stroke-width:8px;}</style></defs><title>Recurso 4</title><g id="Capa_2" data-name="Capa 2"><g id="Sprinter"><path class="cls-1" d="M252,96.66l39.58,23s19.5,15.5,15.5,48.5"/><path class="cls-1" d="M263.13,170s20.89-1.79,44-1.79c18,0,99.15-.91,97.54-6"/><path class="cls-1" d="M304.14,138.86s72.45,8.07,98.21-2.79"/><path class="cls-1" d="M173.1,4.2s79.05,8.1,100.48,21.66a7.3,7.3,0,0,1,1,.77c4.1,3.74,33.95,31.06,39.53,37.57l30,35"/><ellipse class="cls-1" cx="244.1" cy="202.7" rx="25" ry="38.5"/><path class="cls-1" d="M245.1,164.2s20,1,28,21c9.49,23.73,1,59-31,56"/><ellipse class="cls-1" cx="38.74" cy="200.19" rx="14.93" ry="20.48"/><path class="cls-1" d="M40.53,179.7s11.94.54,16.72,11.18c5.67,12.62.6,31.38-18.51,29.79"/><path class="cls-1" d="M407.1,184.2c-.82,14-11.07,20.5-14.72,22.4a7,7,0,0,1-2.4.74c-10.44,1.26-90.47,10.86-98.88,10.86-9,0-9-5-9-5-7.62-41-24.34-48.35-32-51.55a7.29,7.29,0,0,0-2.2-.57c-29.78-2.82-31.66,29.11-30.76,45.19a7.78,7.78,0,0,1-8.36,8.22L68.29,203.61h0a7.79,7.79,0,0,1-7.16-8v-.41c0-14.39-16-25-31.18-15.14a7.06,7.06,0,0,0-1.66,1.52A23.43,23.43,0,0,0,23.58,191a7.74,7.74,0,0,1-9.33,5.75c-2-.46-3.62-.83-4.65-1-5-1-3-9-5-24-3-30,6-95,9-107,2.57-10.26,9.52-12.47,11.48-12.9a7.44,7.44,0,0,0,1.31-.43l17.93-7.54a4.07,4.07,0,0,1,.58-.22c5.46-1.8,85.87-28.25,123.58-39.29a7.75,7.75,0,0,1,4.45,0c31.22,9.73,61.78,69.18,69.88,88.22a7.81,7.81,0,0,0,8.34,4.65c41-6.09,84.94-.18,92,.85a6.66,6.66,0,0,1,1.85.54c4.6,2.06,26.34,11.93,44.12,22.6,18.07,10.84,15.74,27.39,15.12,37.86A7.78,7.78,0,0,0,406,164.4C409.63,169,408,169.26,407.1,184.2Z"/><path class="cls-1" d="M341.11,213.09a21.72,21.72,0,0,0,18.78,11.75c8.42,0,16.36-6,19.76-16.26C380.1,208.2,342.1,213.2,341.11,213.09Z"/><path class="cls-1" d="M359.89,224.84c15.85,1.49,25.93-6.41,30.91-17.65"/><path class="cls-1" d="M162.35,18,146.8,22a13.81,13.81,0,0,0-10.7,13.15V71.26c0,7.14,5.87,13.07,13.46,13.6l69.19,4.84a3,3,0,0,0,2.89-4.63L178.31,23.62A15,15,0,0,0,162.35,18Z"/><line class="cls-1" x1="221.51" y1="175.61" x2="4.32" y2="168.2"/></g></g></svg>