<svg xmlns="http://www.w3.org/2000/svg" viewBox="0 0 405.24 238.38">
    <defs>
        <style>.cls-1{fill:none;stroke:#58ff00;stroke-miterlimit:10;}</style>
    </defs>
    <title>sprinter</title>
    <g id="Sprinter">
        <path class="cls-1" d="M295.42,221,335,244s19.5,15.5,15.5,48.5" transform="translate(-46.9 -127.8)"/>
        <path class="cls-1" d="M306.53,294.29s20.88-1.79,44-1.79c18,0,99.14-.91,97.54-6" transform="translate(-46.9 -127.8)"/>
        <path class="cls-1" d="M347.54,263.15s72.45,8.07,98.2-2.79" transform="translate(-46.9 -127.8)"/>
        <path class="cls-1" d="M216.5,128.5s79.05,8.1,100.47,21.66a6.66,6.66,0,0,1,1,.77c4.09,3.74,33.94,31,39.53,37.57l30,35" transform="translate(-46.9 -127.8)"/>
        <ellipse class="cls-1" cx="240.6" cy="199.2" rx="25" ry="38.5"/>
        <path class="cls-1" d="M290.5,288.5s20,1,28,21c9.49,23.73,1,59-31,56" transform="translate(-46.9 -127.8)"/>
        <ellipse class="cls-1" cx="35.24" cy="196.69" rx="14.93" ry="20.48"/>
        <path class="cls-1" d="M83.93,304s11.94.53,16.72,11.17c5.66,12.62.59,31.39-18.52,29.79" transform="translate(-46.9 -127.8)"/>
        <path class="cls-1" d="M450.5,308.5c-.82,13.95-11.08,20.5-14.72,22.39a7.29,7.29,0,0,1-2.4.75c-10.44,1.25-90.47,10.86-98.88,10.86-9,0-9-5-9-5-7.63-41-24.34-48.36-31.95-51.56a8,8,0,0,0-2.21-.57c-29.77-2.82-31.66,29.11-30.75,45.2a7.77,7.77,0,0,1-8.37,8.21L111.68,327.9h0a7.79,7.79,0,0,1-7.16-8v-.41c0-14.39-16-25.05-31.18-15.15a7.28,7.28,0,0,0-1.66,1.52A23.5,23.5,0,0,0,67,315.29,7.74,7.74,0,0,1,57.64,321c-2-.46-3.62-.84-4.64-1-5-1-3-9-5-24-3-30,6-95,9-107,2.57-10.26,9.52-12.48,11.48-12.91a6.89,6.89,0,0,0,1.31-.42l17.92-7.55.58-.22c5.47-1.8,85.88-28.25,123.59-39.28a7.67,7.67,0,0,1,4.45,0c31.22,9.74,61.78,69.19,69.88,88.22a7.79,7.79,0,0,0,8.34,4.65c41-6.09,84.93-.18,92,.85a7.37,7.37,0,0,1,1.86.54c4.6,2.06,26.34,11.94,44.12,22.61,18.06,10.84,15.73,27.39,15.11,37.86a7.84,7.84,0,0,0,1.73,5.34C453,293.29,451.38,293.56,450.5,308.5Z" transform="translate(-46.9 -127.8)"/>
        <path class="cls-1" d="M384.51,337.39a21.74,21.74,0,0,0,18.77,11.75c8.42,0,16.36-6,19.76-16.26C423.5,332.5,385.5,337.5,384.51,337.39Z" transform="translate(-46.9 -127.8)"/>
        <path class="cls-1" d="M403.28,349.14c15.85,1.48,25.93-6.42,30.92-17.66" transform="translate(-46.9 -127.8)"/>
        <path class="cls-1" d="M205.75,142.29l-15.55,4a13.8,13.8,0,0,0-10.7,13.15v36.13c0,7.13,5.87,13.06,13.45,13.59l69.2,4.84a3,3,0,0,0,2.89-4.62l-43.33-61.45A15,15,0,0,0,205.75,142.29Z" transform="translate(-46.9 -127.8)"/>
        <line class="cls-1" x1="218.01" y1="172.11" x2="0.82" y2="164.7"/>
    </g>
</svg>